<svg width="580" height="400" xmlns="http://www.w3.org/2000/svg">
 <!-- Created with Method Draw - http://github.com/duopixel/Method-Draw/ -->

 <g>
  <title>background</title>
  <rect fill="#36a2fb" id="canvas_background" height="402" width="582" y="-1" x="-1"/>
  <g display="none" overflow="visible" y="0" x="0" height="100%" width="100%" id="canvasGrid">
   <rect fill="url(#gridpattern)" stroke-width="0" y="0" x="0" height="100%" width="100%"/>
  </g>
 </g>
 <g>
  <title>Layer 1</title>
  <g fill="#bfe2ff" stroke="null" id="svg_25">
   <g stroke="null" transform="matrix(0.4579620291154065,0,0,0.4579620291154065,-128.77191673725974,-63.769275604530776) " id="svg_5">
    <path stroke="null" id="svg_6" d="m1231.271851,331.031629c0,-7.269 -5.892,-13.161 -13.161,-13.161l-13.678,0c-7.269,0 -13.161,5.892 -13.161,13.161l0,91.678c0,7.269 5.892,13.161 13.161,13.161l13.678,0c7.269,0 13.161,-5.892 13.161,-13.161l0,-91.678z"/>
    <path stroke="null" id="svg_7" d="m1172.271851,363.031629c0,-7.821 -6.34,-14.161 -14.161,-14.161l-11.678,0c-7.821,0 -14.161,6.34 -14.161,14.161l0,58.678c0,7.821 6.34,14.161 14.161,14.161l11.678,0c7.821,0 14.161,-6.34 14.161,-14.161l0,-58.678z"/>
    <path stroke="null" id="svg_8" d="m1289.271851,296.031629c0,-7.269 -5.892,-13.161 -13.161,-13.161l-13.678,0c-7.269,0 -13.161,5.892 -13.161,13.161l0,126.678c0,7.269 5.892,13.161 13.161,13.161l13.678,0c7.269,0 13.161,-5.892 13.161,-13.161l0,-126.678z"/>
    <path stroke="null" id="svg_9" d="m1362.624851,245.513629l-25.658,-32.914c-2.215,-2.842 -5.365,-4.472 -8.642,-4.472s-6.427,1.63 -8.642,4.472l-25.658,32.913c-2.201,2.823 -2.741,5.922 -1.481,8.501c1.373,2.812 4.669,4.49 8.813,4.49l6.915,0.019l0,164.562c0,7.257 5.912,12.786 13.169,12.786l13.77,0c7.257,0 13.061,-5.529 13.061,-12.786l0,-164.676l6.958,0.096c4.153,0 7.478,-1.679 8.851,-4.49c1.26,-2.58 0.745,-5.678 -1.456,-8.501z"/>
   </g>
   <g stroke="null" transform="matrix(0.4579620291154065,0,0,0.4579620291154065,-128.77191673725974,-63.769275604530776) " id="svg_10"/>
   <g stroke="null" transform="matrix(0.4579620291154065,0,0,0.4579620291154065,-128.77191673725974,-63.769275604530776) " id="svg_11"/>
   <g stroke="null" transform="matrix(0.4579620291154065,0,0,0.4579620291154065,-128.77191673725974,-63.769275604530776) " id="svg_12"/>
   <g stroke="null" transform="matrix(0.4579620291154065,0,0,0.4579620291154065,-128.77191673725974,-63.769275604530776) " id="svg_13"/>
   <g stroke="null" transform="matrix(0.4579620291154065,0,0,0.4579620291154065,-128.77191673725974,-63.769275604530776) " id="svg_14"/>
   <g stroke="null" transform="matrix(0.4579620291154065,0,0,0.4579620291154065,-128.77191673725974,-63.769275604530776) " id="svg_15"/>
   <g stroke="null" transform="matrix(0.4579620291154065,0,0,0.4579620291154065,-128.77191673725974,-63.769275604530776) " id="svg_16"/>
   <g stroke="null" transform="matrix(0.4579620291154065,0,0,0.4579620291154065,-128.77191673725974,-63.769275604530776) " id="svg_17"/>
   <g stroke="null" transform="matrix(0.4579620291154065,0,0,0.4579620291154065,-128.77191673725974,-63.769275604530776) " id="svg_18"/>
   <g stroke="null" transform="matrix(0.4579620291154065,0,0,0.4579620291154065,-128.77191673725974,-63.769275604530776) " id="svg_19"/>
   <g stroke="null" transform="matrix(0.4579620291154065,0,0,0.4579620291154065,-128.77191673725974,-63.769275604530776) " id="svg_20"/>
   <g stroke="null" transform="matrix(0.4579620291154065,0,0,0.4579620291154065,-128.77191673725974,-63.769275604530776) " id="svg_21"/>
   <g stroke="null" transform="matrix(0.4579620291154065,0,0,0.4579620291154065,-128.77191673725974,-63.769275604530776) " id="svg_22"/>
   <g stroke="null" transform="matrix(0.4579620291154065,0,0,0.4579620291154065,-128.77191673725974,-63.769275604530776) " id="svg_23"/>
   <g stroke="null" transform="matrix(0.4579620291154065,0,0,0.4579620291154065,-128.77191673725974,-63.769275604530776) " id="svg_24"/>
  </g>
  <g fill="#bfe2ff" stroke="null" id="svg_48">
   <g stroke="null" transform="matrix(1.8569592083170414,0,0,1.9614478580300805,24.53106868625764,3.245426465946366) " id="svg_30">
    <g stroke="null" id="svg_31">
     <path stroke="null" id="svg_32" d="m256.661604,98.321137l9.346,0l0,74.184l-9.346,0l0,-74.184zm-18.61,2.685l-1.294,0.402c-1.62,0.512 -3.524,-0.201 -4.179,-1.558c-0.314,-0.657 -0.329,-1.383 -0.041,-2.047c0.334,-0.768 1.044,-1.369 1.945,-1.65l14.591,-4.545l1.776,13.001c0.1,0.662 -0.086,1.338 -0.525,1.898c-0.537,0.688 -1.4,1.134 -2.368,1.226c-0.116,0.012 -0.246,0.018 -0.371,0.018c-1.651,0 -3.053,-1.052 -3.261,-2.444l-0.225,-1.967c-16.863,23.349 -55.694,48.374 -57.379,49.452c-0.572,0.366 -1.256,0.561 -1.98,0.561c-0.976,0 -1.894,-0.36 -2.517,-0.991c-0.573,-0.577 -0.841,-1.313 -0.758,-2.069c0.087,-0.785 0.558,-1.507 1.294,-1.975c0.395,-0.254 38.856,-25.117 55.292,-47.312zm11.056,13.792l0,57.705l-9.344,0l0,-57.705l9.344,0zm-16.341,17.147l0,40.56l-9.347,0l0,-40.56l9.347,0zm-16.901,17.813l0,22.744l-9.345,0l0,-22.744l9.345,0zm-17.867,8.911l0,13.834l-9.344,0l0,-13.834l9.344,0zm70.916,22.74l-94.666,0l0,-6.934l94.667,0l-0.001,6.934l0,0z"/>
    </g>
   </g>
   <g stroke="null" transform="matrix(1.8569592083170414,0,0,1.9614478580300805,24.53106868625764,3.245426465946366) " id="svg_33"/>
   <g stroke="null" transform="matrix(1.8569592083170414,0,0,1.9614478580300805,24.53106868625764,3.245426465946366) " id="svg_34"/>
   <g stroke="null" transform="matrix(1.8569592083170414,0,0,1.9614478580300805,24.53106868625764,3.245426465946366) " id="svg_35"/>
   <g stroke="null" transform="matrix(1.8569592083170414,0,0,1.9614478580300805,24.53106868625764,3.245426465946366) " id="svg_36"/>
   <g stroke="null" transform="matrix(1.8569592083170414,0,0,1.9614478580300805,24.53106868625764,3.245426465946366) " id="svg_37"/>
   <g stroke="null" transform="matrix(1.8569592083170414,0,0,1.9614478580300805,24.53106868625764,3.245426465946366) " id="svg_38"/>
   <g stroke="null" transform="matrix(1.8569592083170414,0,0,1.9614478580300805,24.53106868625764,3.245426465946366) " id="svg_39"/>
   <g stroke="null" transform="matrix(1.8569592083170414,0,0,1.9614478580300805,24.53106868625764,3.245426465946366) " id="svg_40"/>
   <g stroke="null" transform="matrix(1.8569592083170414,0,0,1.9614478580300805,24.53106868625764,3.245426465946366) " id="svg_41"/>
   <g stroke="null" transform="matrix(1.8569592083170414,0,0,1.9614478580300805,24.53106868625764,3.245426465946366) " id="svg_42"/>
   <g stroke="null" transform="matrix(1.8569592083170414,0,0,1.9614478580300805,24.53106868625764,3.245426465946366) " id="svg_43"/>
   <g stroke="null" transform="matrix(1.8569592083170414,0,0,1.9614478580300805,24.53106868625764,3.245426465946366) " id="svg_44"/>
   <g stroke="null" transform="matrix(1.8569592083170414,0,0,1.9614478580300805,24.53106868625764,3.245426465946366) " id="svg_45"/>
   <g stroke="null" transform="matrix(1.8569592083170414,0,0,1.9614478580300805,24.53106868625764,3.245426465946366) " id="svg_46"/>
   <g stroke="null" transform="matrix(1.8569592083170414,0,0,1.9614478580300805,24.53106868625764,3.245426465946366) " id="svg_47"/>
  </g>
  <g fill="#bfe2ff" stroke="null" id="svg_75">
   <g stroke="null" transform="matrix(0.21679665448790555,0,0,0.2252794652770711,-556.9700036432796,-348.82861629046715) " id="svg_53">
    <g stroke="null" id="svg_54">
     <path stroke="null" id="svg_55" d="m3071.367218,2080.490351l0,78.9c0,4.8 3.9,8.8 8.8,8.8l61,0c4.8,0 8.8,-3.9 8.8,-8.8l0,-138.8l-44.3,44.3c-9.4,9.3 -21.4,14.7 -34.3,15.6z"/>
     <path stroke="null" id="svg_56" d="m3180.367218,2019.590351l0,139.8c0,4.8 3.9,8.8 8.8,8.8l61,0c4.8,0 8.8,-3.9 8.8,-8.8l0,-82.3c-13.9,-0.3 -26.9,-5.8 -36.7,-15.6l-41.9,-41.9z"/>
     <path stroke="null" id="svg_57" d="m3289.367218,2068.390351l0,91c0,4.8 3.9,8.8 8.8,8.8l61,0c4.8,0 8.8,-3.9 8.8,-8.8l0,-167.9l-69.9,69.9c-2.7,2.7 -5.6,5 -8.7,7z"/>
     <path stroke="null" id="svg_58" d="m3471.067218,1888.290351l-72.7,72.7l0,198.4c0,4.8 3.9,8.8 8.8,8.8l61,0c4.8,0 8.8,-3.9 8.8,-8.8l0,-265.6c-2,-1.7 -3.5,-3.2 -4.6,-4.2l-1.3,-1.3z"/>
     <path stroke="null" id="svg_59" d="m3520.967218,1759.490351c-2.9,-3.1 -7.3,-4.7 -12.9,-4.7c-0.5,0 -1.1,0 -1.6,0c-28.4,1.3 -56.7,2.7 -85.1,4c-3.8,0.2 -9,0.4 -13.1,4.5c-1.3,1.3 -2.3,2.8 -3.1,4.6c-4.2,9.1 1.7,15 4.5,17.8l7.1,7.2c4.9,5 9.9,10 14.9,14.9l-171.6,171.7l-77.1,-77.1c-4.6,-4.6 -10.8,-7.2 -17.4,-7.2c-6.6,0 -12.7,2.6 -17.3,7.2l-102.7,102.6c-9.6,9.6 -9.6,25.1 0,34.7l4.6,4.6c4.6,4.6 10.8,7.2 17.4,7.2s12.7,-2.6 17.3,-7.2l80.7,-80.7l77.1,77.1c4.6,4.6 10.8,7.2 17.4,7.2c6.6,0 12.7,-2.6 17.4,-7.2l193.6,-193.6l21.9,21.8c2.6,2.6 6.2,6.2 11.7,6.2c2.3,0 4.6,-0.6 7,-1.9c1.6,-0.9 3,-1.9 4.2,-3.1c4.3,-4.3 5.1,-9.8 5.3,-14.1c0.8,-18.4 1.7,-36.8 2.6,-55.3l1.3,-27.7c0.3,-5.8 -1,-10.3 -4.1,-13.5z"/>
    </g>
   </g>
   <g stroke="null" transform="matrix(0.21679665448790555,0,0,0.2252794652770711,-556.9700036432796,-348.82861629046715) " id="svg_60"/>
   <g stroke="null" transform="matrix(0.21679665448790555,0,0,0.2252794652770711,-556.9700036432796,-348.82861629046715) " id="svg_61"/>
   <g stroke="null" transform="matrix(0.21679665448790555,0,0,0.2252794652770711,-556.9700036432796,-348.82861629046715) " id="svg_62"/>
   <g stroke="null" transform="matrix(0.21679665448790555,0,0,0.2252794652770711,-556.9700036432796,-348.82861629046715) " id="svg_63"/>
   <g stroke="null" transform="matrix(0.21679665448790555,0,0,0.2252794652770711,-556.9700036432796,-348.82861629046715) " id="svg_64"/>
   <g stroke="null" transform="matrix(0.21679665448790555,0,0,0.2252794652770711,-556.9700036432796,-348.82861629046715) " id="svg_65"/>
   <g stroke="null" transform="matrix(0.21679665448790555,0,0,0.2252794652770711,-556.9700036432796,-348.82861629046715) " id="svg_66"/>
   <g stroke="null" transform="matrix(0.21679665448790555,0,0,0.2252794652770711,-556.9700036432796,-348.82861629046715) " id="svg_67"/>
   <g stroke="null" transform="matrix(0.21679665448790555,0,0,0.2252794652770711,-556.9700036432796,-348.82861629046715) " id="svg_68"/>
   <g stroke="null" transform="matrix(0.21679665448790555,0,0,0.2252794652770711,-556.9700036432796,-348.82861629046715) " id="svg_69"/>
   <g stroke="null" transform="matrix(0.21679665448790555,0,0,0.2252794652770711,-556.9700036432796,-348.82861629046715) " id="svg_70"/>
   <g stroke="null" transform="matrix(0.21679665448790555,0,0,0.2252794652770711,-556.9700036432796,-348.82861629046715) " id="svg_71"/>
   <g stroke="null" transform="matrix(0.21679665448790555,0,0,0.2252794652770711,-556.9700036432796,-348.82861629046715) " id="svg_72"/>
   <g stroke="null" transform="matrix(0.21679665448790555,0,0,0.2252794652770711,-556.9700036432796,-348.82861629046715) " id="svg_73"/>
   <g stroke="null" transform="matrix(0.21679665448790555,0,0,0.2252794652770711,-556.9700036432796,-348.82861629046715) " id="svg_74"/>
  </g>
  <g fill="#bfe2ff" stroke="null" id="svg_98">
   <g stroke="null" transform="matrix(0.34665432449068445,0,0,0.34665432449068445,-871.2440420152416,-505.3925011196188) " id="svg_80">
    <path stroke="null" id="svg_81" d="m3146.904282,2406.99134l-373.991,0l0,-373.991c0,-5.523 -4.478,-10 -10,-10s-10,4.477 -10,10l0,373.991l-28.009,0c-5.522,0 -10,4.477 -10,10s4.478,10 10,10l28.009,0l0,28.009c0,5.523 4.478,10 10,10s10,-4.477 10,-10l0,-28.009l373.991,0c5.522,0 10,-4.477 10,-10s-4.478,-10 -10,-10z"/>
    <path stroke="null" id="svg_82" d="m2826.938282,2386.99134c18.762,0 34.025,-15.264 34.025,-34.025c0,-7.414 -2.391,-14.276 -6.432,-19.872l57.969,-70.329c3.999,1.655 8.376,2.573 12.966,2.573c8.642,0 16.536,-3.244 22.544,-8.571l43.007,26.218c-0.684,2.685 -1.049,5.496 -1.049,8.391c0,18.762 15.264,34.025 34.025,34.025s34.025,-15.264 34.025,-34.025c0,-9.864 -4.223,-18.757 -10.951,-24.977l69.884,-145.678c1.814,0.3 3.673,0.464 5.57,0.464c18.762,0 34.025,-15.264 34.025,-34.025s-15.264,-34.025 -34.025,-34.025s-34.025,15.264 -34.025,34.025c0,9.673 4.064,18.41 10.567,24.611l-70.019,145.958c-1.649,-0.246 -3.335,-0.377 -5.051,-0.377c-8.642,0 -16.536,3.244 -22.544,8.571l-43.007,-26.218c0.684,-2.685 1.049,-5.496 1.049,-8.391c0,-18.762 -15.264,-34.026 -34.025,-34.026s-34.025,15.264 -34.025,34.026c0,6.913 2.078,13.347 5.634,18.722l-58.489,70.96c-3.635,-1.329 -7.558,-2.055 -11.648,-2.055c-18.762,0 -34.025,15.264 -34.025,34.026s15.263,34.024 34.025,34.024zm295.584,-313.857c7.733,0 14.025,6.292 14.025,14.025s-6.292,14.025 -14.025,14.025s-14.025,-6.292 -14.025,-14.025s6.292,-14.025 14.025,-14.025zm-98.528,204.217c7.733,0 14.025,6.292 14.025,14.025s-6.292,14.025 -14.025,14.025s-14.025,-6.292 -14.025,-14.025s6.291,-14.025 14.025,-14.025zm-98.527,-60.064c7.733,0 14.025,6.292 14.025,14.026c0,7.733 -6.292,14.025 -14.025,14.025s-14.025,-6.292 -14.025,-14.025c-0.001,-7.734 6.291,-14.026 14.025,-14.026zm-98.529,121.653c7.733,0 14.025,6.292 14.025,14.026c0,7.733 -6.292,14.025 -14.025,14.025s-14.025,-6.292 -14.025,-14.025c0,-7.734 6.292,-14.026 14.025,-14.026z"/>
   </g>
   <g stroke="null" transform="matrix(0.34665432449068445,0,0,0.34665432449068445,-871.2440420152416,-505.3925011196188) " id="svg_83"/>
   <g stroke="null" transform="matrix(0.34665432449068445,0,0,0.34665432449068445,-871.2440420152416,-505.3925011196188) " id="svg_84"/>
   <g stroke="null" transform="matrix(0.34665432449068445,0,0,0.34665432449068445,-871.2440420152416,-505.3925011196188) " id="svg_85"/>
   <g stroke="null" transform="matrix(0.34665432449068445,0,0,0.34665432449068445,-871.2440420152416,-505.3925011196188) " id="svg_86"/>
   <g stroke="null" transform="matrix(0.34665432449068445,0,0,0.34665432449068445,-871.2440420152416,-505.3925011196188) " id="svg_87"/>
   <g stroke="null" transform="matrix(0.34665432449068445,0,0,0.34665432449068445,-871.2440420152416,-505.3925011196188) " id="svg_88"/>
   <g stroke="null" transform="matrix(0.34665432449068445,0,0,0.34665432449068445,-871.2440420152416,-505.3925011196188) " id="svg_89"/>
   <g stroke="null" transform="matrix(0.34665432449068445,0,0,0.34665432449068445,-871.2440420152416,-505.3925011196188) " id="svg_90"/>
   <g stroke="null" transform="matrix(0.34665432449068445,0,0,0.34665432449068445,-871.2440420152416,-505.3925011196188) " id="svg_91"/>
   <g stroke="null" transform="matrix(0.34665432449068445,0,0,0.34665432449068445,-871.2440420152416,-505.3925011196188) " id="svg_92"/>
   <g stroke="null" transform="matrix(0.34665432449068445,0,0,0.34665432449068445,-871.2440420152416,-505.3925011196188) " id="svg_93"/>
   <g stroke="null" transform="matrix(0.34665432449068445,0,0,0.34665432449068445,-871.2440420152416,-505.3925011196188) " id="svg_94"/>
   <g stroke="null" transform="matrix(0.34665432449068445,0,0,0.34665432449068445,-871.2440420152416,-505.3925011196188) " id="svg_95"/>
   <g stroke="null" transform="matrix(0.34665432449068445,0,0,0.34665432449068445,-871.2440420152416,-505.3925011196188) " id="svg_96"/>
   <g stroke="null" transform="matrix(0.34665432449068445,0,0,0.34665432449068445,-871.2440420152416,-505.3925011196188) " id="svg_97"/>
  </g>
 </g>
</svg>